# xmcd
#
# Track frame offsets: 
#        150
#        10959
#        20378
#        33018
#        43787
#        53329
#        65858
#        75075
#        86776
#        97298
#        108629
#        122138
#        133093
#        150274
#        161001
#        176497
#        186464
#
# Disc length: 2671 seconds
#
# Revision: 1
# Processed by: cddbd v1.5.2PL0 Copyright (c) Steve Scherf et al.
# Submitted via: ExactAudioCopy v0.99pb5
#
DISCID=da0a6d11
DTITLE=Denis Novato - Oberkrainer Spezialitäten
DYEAR=1900
DGENRE=Folk
TTITLE0=Der lustige Bariton
TTITLE1=Wenn ich später eintreffe
TTITLE2=In der Bucht von Sydney
TTITLE3=Magic Vikj Polka
TTITLE4=Helikon Polka
TTITLE5=Regentropfen
TTITLE6=Gruß an Domino
TTITLE7=Fahrt bei Nacht
TTITLE8=Neujahr in Bled
TTITLE9=Auf dem Weg nach Schenna
TTITLE10=Frühlingswind
TTITLE11=Montagmorgen
TTITLE12=Fern von Freunden
TTITLE13=Kriminal Polka
TTITLE14=Spaziergang am Meeresufer
TTITLE15=Berto Polka
TTITLE16=Sommernächte
EXTD=
EXTT0=
EXTT1=
EXTT2=
EXTT3=
EXTT4=
EXTT5=
EXTT6=
EXTT7=
EXTT8=
EXTT9=
EXTT10=
EXTT11=
EXTT12=
EXTT13=
EXTT14=
EXTT15=
EXTT16=
PLAYORDER=
